# xmcd CD database file
#
# Track frame offsets:
#	150
#	38327
#	63067
#	91999
#	142544
#	180327
#	203157
#	241625
#	265381
#	312604
#
# Disc length: 4523 seconds
#
# Revision: 0
# Processed by: cddbd v1.5.1PL0 Copyright (c) Steve Scherf et al.
# Submitted via: CDex 1.51
#
DISCID=7311a90a
DTITLE=Various Artist - The All-Stars at Bob Haggart's 80th Birthday Party, CD 1
DYEAR=2002
DGENRE=Jazz
TTITLE0=Howard Alden, Dan Barrett - Oh, Lady, Be Good!
TTITLE1=Flip Phillips - Symphony
TTITLE2=George Masso, Dan Barrett - It Had To Be You
TTITLE3=Kenny Davern, Bob Wilber - Nobody's Sweetheart
TTITLE4=Rick Fay - Blue Turning Grey Over You
TTITLE5=Dick Hyman - Lover, Come Back To Me
TTITLE6=Ruby Braff - Yesterdays
TTITLE7=Ken Peplowski, Dan Barrett - How Long Has This Been Going On?
TTITLE8=Ruby Braff - Muskrat Ramble
TTITLE9=Flip Phillips - Limehouse Blues
EXTD=YEAR: 2002
EXTT0=
EXTT1=
EXTT2=
EXTT3=
EXTT4=
EXTT5=
EXTT6=
EXTT7=
EXTT8=
EXTT9=
PLAYORDER=
